<svg width="24" height="24" viewBox="0 0 24 24" fill="none" xmlns="http://www.w3.org/2000/svg">
<g clip-path="url(#clip0_21_1669)">
<path d="M4.38716 10.0595L11.5524 12.4475L13.9404 19.6127C14.0176 19.8442 14.2342 20 14.4777 20C14.7213 20 14.9379 19.8442 15.0151 19.6127L19.9709 4.74559C20.0388 4.54241 19.9857 4.31798 19.8342 4.16578C19.6827 4.01427 19.4576 3.96118 19.2544 4.02914L4.38725 8.98492C4.15576 9.06208 4 9.27872 4 9.52225C4 9.76578 4.15566 9.98234 4.38716 10.0595ZM18.5379 5.46203L14.4778 17.6425L12.5373 11.821C12.4806 11.6518 12.3482 11.5194 12.179 11.4627L6.35748 9.5222L18.5379 5.46203Z" fill="currentColor"/>
</g>
<defs>
<clipPath id="clip0_21_1669">
<rect width="24" height="24" fill="white"/>
</clipPath>
</defs>
</svg>
