<svg width="192" height="39" fill="none" xmlns="http://www.w3.org/2000/svg"><g clip-path="url(#a)" fill="#F03024"><path d="M25.94 39H0v-5.924h25.94V39Z"/><path fill-rule="evenodd" clip-rule="evenodd" d="M76.462 6.09c3.542.542 6.021 2.063 7.372 4.6l.078.139c1.61 2.934 1.991 5.828 1.113 8.666l-.001.003-.001.003c-.764 2.28-1.88 4.032-3.357 5.234-1.421 1.157-3.16 1.791-5.204 1.913v6.99h-5.233V26.65c-2.052-.113-3.798-.743-5.224-1.9-1.483-1.203-2.6-2.96-3.364-5.249l-.002-.005c-.892-2.883-.486-5.824 1.19-8.806 1.352-2.536 3.84-4.057 7.4-4.599V-.87h5.233v6.96Zm-5.233 5.28c-1.211.4-2.051 1.087-2.55 2.053l-.002.005-.003.005c-.888 1.56-1.093 3.073-.641 4.553.64 1.897 1.709 3.037 3.196 3.48V11.37Zm5.233 10.097c1.488-.445 2.566-1.584 3.222-3.483.451-1.48.247-2.991-.641-4.551l-.002-.004-.002-.003c-.515-.968-1.364-1.656-2.577-2.056v10.097ZM92.169 6.365c1.835-.64 3.765-.646 5.779-.032l.096.03h.001c2.88.919 4.585 2.59 5.014 5.031l.004.023v8.887l1.513 1.132v4.405l-.194.055c-1.241.352-2.375.379-3.391.059-.934-.294-1.747-.873-2.443-1.723-1.098 1.04-2.27 1.702-3.514 1.972-1.322.286-2.704.123-4.137-.473-1.616-.43-2.788-1.285-3.482-2.579-.69-1.286-.887-2.971-.628-5.027.048-1.015.36-1.895.94-2.628.58-.733 1.42-1.303 2.495-1.72l.007-.002.006-.002c2.036-.677 4.475-.892 7.31-.655.033-.416-.025-.766-.161-1.059-.154-.33-.42-.611-.816-.835h-2.972c-.3.024-.516.123-.674.28-.162.16-.285.407-.35.765l-.04.221h-5.408l.036-.3c.315-2.653 2.01-4.59 4.995-5.82l.007-.003.007-.002Zm.843 11.702c-.633.503-.9.996-.9 1.476 0 .504.292 1.082.976 1.737.495.333 1.004.494 1.531.494.537 0 1.111-.166 1.727-.517l.01-.006.01-.005c.5-.23.975-.707 1.411-1.47v-1.71h-4.765Zm46.307-11.702c1.835-.64 3.764-.646 5.779-.032l.096.03h.001c2.879.919 4.584 2.59 5.013 5.031l.005.023v8.887l1.513 1.132v4.405l-.195.055c-1.241.352-2.375.379-3.391.059-.933-.294-1.746-.873-2.442-1.723-1.099 1.04-2.27 1.702-3.515 1.972-1.321.286-2.703.123-4.137-.473-1.615-.43-2.788-1.285-3.481-2.579-.69-1.286-.887-2.971-.628-5.027.048-1.015.359-1.895.939-2.628.581-.733 1.42-1.303 2.496-1.72l.006-.002.006-.002c2.036-.677 4.476-.892 7.31-.655.033-.416-.024-.766-.16-1.059-.155-.33-.42-.611-.816-.835h-2.973c-.299.024-.516.123-.673.28-.162.16-.286.407-.35.765l-.04.221h-5.408l.035-.3c.316-2.653 2.011-4.59 4.996-5.82l.007-.003.007-.002Zm.842 11.702c-.632.503-.9.996-.9 1.476 0 .504.293 1.081.977 1.737.494.333 1.003.494 1.531.494.536 0 1.111-.166 1.726-.517l.01-.006.011-.005c.5-.23.975-.707 1.411-1.47v-1.71h-4.766Z"/><path d="M42.507 26.15h-5.552V11.546h-3.883l-.307 8.097c.034.113.043.246.041.38a4.596 4.596 0 0 1-.06.61 19.843 19.843 0 0 1-.416 1.893v.003c-.455 1.672-1.657 2.739-3.54 3.207l-.016.004-.017.002-3.324.385V20.69l.33.08c.59.143 1.047.107 1.398-.067.34-.168.618-.485.82-.99V6.484h14.526V26.15Z"/><path fill-rule="evenodd" clip-rule="evenodd" d="M10.702-.498c1.636-.701 3.219-.67 4.724.107l.072.037.08.043.038.083c3.9 8.58 7.01 17.251 9.333 26.013l.09.337h-5.85l-1.751-5.226H8.013L6.05 25.799H.4l.118-.353c2.488-7.438 4.569-13.309 6.244-17.612 1.67-4.29 2.947-7.053 3.83-8.246l.043-.058.067-.028ZM9.666 15.268h5.95l-2.904-8.986-3.046 8.986Zm40.991-2.964h4.95l.014.002c1.422.148 2.58.606 3.45 1.394.87.788 1.43 1.885 1.696 3.267l.005.026-.054 5.022-.01.035c-.34 1.167-.93 2.101-1.774 2.787-.843.684-1.923 1.107-3.225 1.283l-.018.002H45.344V6.782h5.313v5.522Zm-.053 8.73h3.676c.92-.735 1.312-1.403 1.312-2.003 0-.595-.389-1.233-1.306-1.907h-3.682v3.91Z"/><path d="M159.103 13.57h5.947V7.103c0-.148.12-.268.267-.268h5.072v19.099h-5.153v-7.248h-6.316v7.248h-5.153V6.835h5.256l.08 6.735Zm19.516-.164 5.826-6.544h6.718l-7.915 8.838L192 25.8h-6.994l-6.493-6.971v7.106h-5.153v-19.1h5.259v6.57Z"/><path fill-rule="evenodd" clip-rule="evenodd" d="M130.859 4.758h-12.318v4.474c2.724-.007 5.285.156 7.68.488l.01.002.009.002c1.681.355 3.016.928 3.985 1.732a4.94 4.94 0 0 1 1.762 3.035l.01.058.003.02v.021l.054 5.82v.028l-.006.028c-.302 1.47-.964 2.668-1.989 3.581-1.023.912-2.392 1.525-4.089 1.855l-.025.005h-13.434V-.87h18.348v5.628Zm-12.557 9.805v6.012h5.874c1.799-1.043 2.578-2.04 2.578-2.965 0-.467-.196-.96-.631-1.485-.427-.514-1.073-1.044-1.951-1.587l-5.87.025Z"/></g><defs><clipPath id="a"><path fill="#fff" d="M0 0h192v39H0z"/></clipPath></defs></svg>