<svg width="320" height="64" fill="none" xmlns="http://www.w3.org/2000/svg"><g clip-path="url(#a)"><path fill-rule="evenodd" clip-rule="evenodd" d="M215.995 0h.001c.213 0 .387.174.387.387V63a.388.388 0 0 1-.387.386h-.001a.389.389 0 0 1-.387-.386V.387c0-.213.175-.387.387-.387Z" fill="#fff"/><path fill-rule="evenodd" clip-rule="evenodd" d="M201.638 5.922H0V42.18h201.638V5.922Z" fill="#E22427"/><path fill-rule="evenodd" clip-rule="evenodd" d="M144.655 24.05c0 8.778-2.045 15.894-4.568 15.895H6.801c-2.522 0-4.567-7.117-4.567-15.895 0-8.779 2.045-15.895 4.567-15.895h133.286c2.523.001 4.568 7.117 4.568 15.895Z" fill="#FEFEFE"/><path fill-rule="evenodd" clip-rule="evenodd" d="M15.763 15.847h3.902l6.152 16.364h-4.079l-1.06-3.065h-5.931L13.71 32.21H9.63l6.132-16.364Zm-.178 10.52h4.257l-2.118-6.24-2.139 6.24Zm11.754-10.52h8.227c1.456 0 2.532.237 3.23.705.699.471 1.181.986 1.444 1.546.176.381.283.745.321 1.09.036.345.055.622.055.828 0 .75-.159 1.353-.475 1.808-.316.456-.664.808-1.048 1.058-.22.148-.433.262-.638.342a7.364 7.364 0 0 1-.53.188v.045c.059.014.117.024.176.032.06.006.118.019.176.034.78.206 1.497.631 2.15 1.279.656.647.983 1.587.983 2.823 0 1.426-.372 2.455-1.114 3.086a5.73 5.73 0 0 1-2.46 1.258c-.5.118-.99.188-1.466.21-.477.021-.887.033-1.224.033h-7.807V15.847Zm3.86 9.46v3.904h4.013c.119 0 .253-.011.408-.033a2.12 2.12 0 0 0 .497-.143c.293-.118.57-.32.826-.608.258-.285.387-.701.387-1.244 0-.808-.269-1.323-.805-1.543a4.565 4.565 0 0 0-1.754-.333h-3.572Zm0-6.46v3.462h3.572a1.988 1.988 0 0 0 .441-.045c.37-.058.703-.22 1.004-.485.3-.265.453-.655.453-1.168 0-.619-.185-1.057-.552-1.313a2.361 2.361 0 0 0-1.213-.43.438.438 0 0 0-.144-.022h-3.561Zm16.584.177h-4.94v-3.177h13.74v3.177h-4.94V32.21h-3.86V19.024Zm18.37 13.65c-2.999-.015-5.127-.904-6.384-2.668-1.257-1.765-1.885-3.756-1.885-5.977a8.655 8.655 0 0 1 .044-.904c.132-1.942.816-3.717 2.05-5.326 1.236-1.61 3.294-2.416 6.175-2.416 2.926 0 4.999.817 6.22 2.45 1.22 1.631 1.895 3.424 2.028 5.379 0 .134.003.268.012.408a9.258 9.258 0 0 1 0 .816 6.36 6.36 0 0 0-.012.408c-.133 1.956-.81 3.746-2.028 5.37-1.221 1.625-3.294 2.438-6.22 2.438v.022Zm0-3.175c1.22 0 2.114-.328 2.68-.982a5.337 5.337 0 0 0 1.157-2.15c.118-.427.192-.85.22-1.269.03-.418.045-.774.045-1.069 0-.307-.015-.662-.044-1.058a7.78 7.78 0 0 0-.197-1.236c-.191-.793-.575-1.52-1.148-2.183-.574-.661-1.477-.992-2.713-.992-1.484 0-2.51.474-3.077 1.423a7.05 7.05 0 0 0-.98 3.119 9.99 9.99 0 0 0-.033.475 12.084 12.084 0 0 0 0 1.015c.007.184.026.37.054.562a6.657 6.657 0 0 0 1.016 2.988c.572.903 1.579 1.357 3.02 1.357Zm21.855-3.066h3.838c-.03.339-.09.702-.177 1.092a7.64 7.64 0 0 1-.375 1.18c-.397.999-1.117 1.919-2.162 2.756-1.043.837-2.616 1.257-4.718 1.257-2.353 0-4.084-.492-5.195-1.478-1.109-.985-1.862-2.073-2.259-3.264a8.709 8.709 0 0 1-.452-1.984 16.816 16.816 0 0 1-.099-1.654c0-2.44.423-4.275 1.267-5.502.846-1.227 1.775-2.093 2.79-2.591.808-.398 1.573-.636 2.294-.718.721-.08 1.228-.12 1.522-.12 2.131 0 3.719.4 4.764 1.201 1.043.801 1.763 1.687 2.16 2.657.148.367.258.736.33 1.103.074.368.119.712.133 1.036h-3.794a3.479 3.479 0 0 0-.098-.54 3.033 3.033 0 0 0-.232-.606c-.191-.412-.525-.794-1.002-1.147-.479-.352-1.173-.53-2.085-.53-1.102 0-1.918.31-2.448.928a5.563 5.563 0 0 0-1.125 2.029 7.379 7.379 0 0 0-.263 1.532c-.03.493-.044.863-.044 1.114 0 1.441.212 2.528.638 3.264.428.735.898 1.256 1.413 1.565.426.25.826.401 1.202.452.375.053.628.078.76.078.852 0 1.507-.173 1.963-.52.455-.344.794-.731 1.015-1.158.147-.278.253-.55.32-.814a4.5 4.5 0 0 0 .12-.618Zm10.056-4.081h8.006v3h-8.006v3.683h9.306v3.176H94.205V15.847h12.945v3.177h-9.085v3.328Zm15.085-3.328h-4.941v-3.177h13.739v3.177h-4.94V32.21h-3.858V19.024Zm14.71-3.177v5.933h4.078c2.177 0 3.676.514 4.5 1.543.823 1.03 1.27 2.162 1.345 3.396v.42c0 1.72-.493 2.996-1.478 3.827-.984.829-2.448 1.245-4.388 1.245h-7.917V15.847h3.86Zm0 9.109v4.08h3.285c.691 0 1.287-.137 1.785-.408.5-.272.75-.813.75-1.621 0-.81-.256-1.353-.771-1.631-.515-.28-1.139-.42-1.873-.42h-3.176Z" fill="#4D4D4D"/><path fill-rule="evenodd" clip-rule="evenodd" d="M6.801 39.945V8.155c-2.522 0-4.567 7.116-4.567 15.895 0 8.778 2.045 15.895 4.567 15.895ZM144.655 24.05c0 8.778-2.045 15.894-4.568 15.895V8.155c2.523.001 4.568 7.117 4.568 15.895Z" fill="#EDEDED"/><path fill-rule="evenodd" clip-rule="evenodd" d="M181.215 33.323h3.999v-2.397h.638c2.726 0 4.735-.67 6.03-2.01 1.295-1.34 1.942-2.961 1.942-4.866 0-1.904-.647-3.524-1.942-4.865-1.295-1.339-3.304-2.009-6.03-2.009h-.638v-2.399h-3.999v2.4h-.638c-2.727 0-4.737.669-6.03 2.008-1.295 1.34-1.942 2.96-1.942 4.865 0 1.904.647 3.526 1.942 4.865 1.294 1.342 3.304 2.01 6.03 2.01h.638v2.398Zm-24.119-17.587v16.949h3.996V26.86h3.814c.35 0 .765-.02 1.245-.057a7.018 7.018 0 0 0 1.473-.285c.899-.26 1.724-.782 2.48-1.565.753-.784 1.13-2.03 1.13-3.735 0-1.445-.438-2.72-1.314-3.825-.876-1.104-2.516-1.657-4.921-1.657h-7.903Zm3.996 3.313v4.522h3.13c.838 0 1.524-.156 2.055-.469.533-.31.8-.932.8-1.86 0-.87-.25-1.451-.753-1.748-.502-.296-1.203-.445-2.101-.445h-3.131Zm20.488 8.678v-7.355h-.319c-1.583 0-2.73.325-3.437.971-.709.648-1.063 1.55-1.063 2.707 0 1.34.414 2.289 1.245 2.845.829.554 1.914.832 3.255.832h.319Zm3.267 0h.321c1.353 0 2.443-.277 3.266-.832.822-.556 1.232-1.504 1.232-2.845 0-1.157-.354-2.059-1.061-2.707-.708-.647-1.854-.97-3.437-.97h-.321v7.354Z" fill="url(#b)"/><path fill-rule="evenodd" clip-rule="evenodd" d="M5.557 56.34v-.898h-.342c-.263 0-.546-.03-.848-.087a3.015 3.015 0 0 1-.897-.334 1.98 1.98 0 0 1-.737-.729c-.196-.321-.295-.73-.295-1.226 0-.642.158-1.14.476-1.492.314-.352.68-.587 1.095-.704a4.472 4.472 0 0 1 1.206-.176h.342v-.906h.822v.906h.341c.398 0 .804.059 1.217.174a2.26 2.26 0 0 1 1.09.703c.314.354.469.852.469 1.496 0 .519-.106.942-.32 1.269a2.047 2.047 0 0 1-.789.725c-.309.157-.608.26-.894.31a4.61 4.61 0 0 1-.773.074h-.341v.898l-.823-.003Zm0-1.53v-3.482H5.33c-1.344 0-2.016.58-2.016 1.738 0 .283.045.551.134.804.088.251.283.473.584.66.3.187.733.28 1.297.28h.228Zm.822 0h.237c1.336 0 2.005-.582 2.005-1.744 0-.696-.202-1.16-.61-1.39a2.757 2.757 0 0 0-1.395-.348H6.38v3.482Zm5.955-2.123h3.212v.675h-3.212v2.08h3.642v.676h-4.464v-5.99h4.37v.675h-3.548v1.885Zm10.16 2.756h.884l-.078 2.028h-.72V56.12h-4.762v1.352h-.719l-.069-2.027h.55c.778-.926 1.166-2.286 1.166-4.083V50.13h3.748v5.315-.001Zm-.823-4.638h-2.102v.745c0 .523-.027.998-.081 1.429-.055.429-.158.85-.307 1.263a5.3 5.3 0 0 1-.619 1.2l3.108.001v-4.638Zm4.294 1.883h3.212v.674h-3.212v2.08h3.64v.676h-4.463v-5.99h4.37v.675h-3.546v1.885Zm5.44-2.56h2.496c1.383 0 2.074.573 2.074 1.72 0 1.256-.718 1.882-2.152 1.882h-1.596v2.389h-.822v-5.99Zm.822.676v2.25h1.508c.5 0 .858-.102 1.075-.306.217-.206.325-.5.325-.883 0-.384-.12-.656-.357-.818-.24-.163-.588-.244-1.042-.244h-1.51v.001Zm6.358 3.765-.58 1.551h-.882l2.32-5.99h.875l2.32 5.99h-.886l-.576-1.55h-2.592Zm.226-.675h2.141l-1.072-2.953-1.07 2.953Zm4.811 2.224v-.701c.07.017.144.025.222.025.815 0 1.224-.913 1.224-2.737v-2.577h3.843v5.99h-.823v-5.314h-2.197v2.074c0 1.197-.176 2.044-.526 2.535-.352.493-.807.74-1.369.74-.084 0-.21-.011-.374-.035Zm8.504-5.99v2.438h1.76a3 3 0 0 1 .86.133c.295.087.556.266.782.534.225.268.338.643.338 1.13 0 .652-.202 1.107-.6 1.367-.4.258-.86.388-1.38.388h-2.583v-5.99h.823Zm0 3.115v2.2h1.662c.16 0 .331-.028.516-.082.185-.055.352-.164.5-.33.147-.165.221-.397.221-.693 0-.73-.446-1.096-1.34-1.096h-1.559v.001Zm6.492.06v2.816h-.826v-5.991h.826v2.498h3.081v-2.498h.822v5.99H61.7v-2.814h-3.081Zm6.98 1.266-.578 1.55h-.884l2.321-5.991h.876l2.321 5.991h-.887l-.576-1.551-2.592.001Zm.228-.675h2.138l-1.07-2.953-1.069 2.953Zm9.346-.157h-1.39l-1.5 2.38h-1.014l1.662-2.464a2.277 2.277 0 0 1-.576-.114 1.67 1.67 0 0 1-.538-.302 1.449 1.449 0 0 1-.4-.531c-.1-.22-.147-.484-.147-.793 0-.458.144-.872.43-1.24.29-.366.85-.548 1.679-.548h2.618v5.992h-.824v-2.38Zm0-2.933h-1.724c-.508 0-.858.114-1.05.347-.193.231-.29.49-.29.773 0 .33.11.601.328.818.217.213.592.321 1.126.321h1.61v-2.26Zm6.737 3.765-.58 1.55h-.882l2.321-5.99h.875l2.322 5.99h-.886l-.577-1.55H81.91Zm.227-.675h2.139l-1.068-2.953-1.071 2.953Zm5.442-3.766h2.688c.334 0 .618.04.855.118a1.5 1.5 0 0 1 .569.325c.142.14.246.3.309.482.064.182.096.381.096.597a1.374 1.374 0 0 1-.482 1.039c-.157.127-.337.21-.542.246v.028c.316.049.612.184.88.41.273.221.407.581.407 1.076 0 .342-.072.634-.217.883-.144.248-.38.441-.703.579-.327.137-.748.209-1.268.209h-2.592v-5.992h-.001.001Zm.822.676v1.866h1.655c.438 0 .747-.09.929-.268.18-.18.271-.4.271-.666 0-.227-.078-.441-.233-.638-.156-.197-.47-.294-.94-.294H88.4Zm0 2.541v2.096h1.71c.256 0 .49-.027.698-.081a.987.987 0 0 0 .51-.317c.133-.157.198-.378.198-.663 0-.38-.124-.65-.377-.802-.25-.156-.595-.233-1.03-.233h-1.71Zm7.482-2.541h-1.998v-.676h4.808v.676h-1.987v5.313h-.822l-.001-5.313Zm7.146 5.493a3.29 3.29 0 0 1-1.242-.22 2.464 2.464 0 0 1-.921-.635 2.835 2.835 0 0 1-.568-1.004 4.26 4.26 0 0 1-.192-1.315c0-.546.077-1.02.234-1.427a2.67 2.67 0 0 1 .641-.995 2.53 2.53 0 0 1 .932-.57 3.39 3.39 0 0 1 1.118-.18c.404 0 .782.058 1.13.179.352.121.66.311.93.566.272.257.478.587.636.995.153.409.232.884.232 1.433 0 .489-.064.928-.19 1.317-.128.39-.315.723-.567 1.002a2.447 2.447 0 0 1-.924.635c-.369.148-.787.22-1.249.22Zm-.002-.676c.347 0 .65-.059.91-.178.26-.122.474-.295.643-.516.17-.22.295-.486.375-.79.082-.307.122-.642.122-1.013 0-.541-.077-.985-.232-1.329-.154-.345-.344-.6-.572-.767a1.812 1.812 0 0 0-.659-.327 2.609 2.609 0 0 0-.588-.076c-.542 0-1.023.184-1.432.55-.408.367-.615 1.018-.615 1.95 0 .363.051.73.15 1.1.097.372.298.697.603.978.304.28.738.42 1.295.42v-.002Zm7.788.497-1.994-5.03h-.019l.018.23v4.8h-.823v-5.99h1.237l1.916 4.929 1.916-4.93h1.234v5.991h-.823v-4.8l.016-.23h-.026l-1.988 5.032h-.666v-.002h.002Zm8.452.18c-.464 0-.878-.073-1.241-.221a2.436 2.436 0 0 1-.922-.635 2.809 2.809 0 0 1-.57-1.004 4.26 4.26 0 0 1-.192-1.315c0-.546.077-1.02.233-1.427.156-.407.372-.736.641-.995a2.58 2.58 0 0 1 .93-.57c.35-.12.723-.18 1.121-.18.402 0 .781.058 1.131.179.351.121.66.311.928.566.271.257.48.587.636.995.152.409.229.884.229 1.433 0 .489-.064.928-.187 1.317-.127.39-.316.723-.568 1.002a2.439 2.439 0 0 1-.924.635 3.32 3.32 0 0 1-1.244.22h-.001Zm-.001-.677c.347 0 .65-.059.908-.178.261-.122.472-.295.644-.516a2.26 2.26 0 0 0 .375-.79c.082-.307.122-.642.122-1.013 0-.541-.078-.985-.232-1.329-.154-.345-.343-.6-.572-.767a1.828 1.828 0 0 0-.659-.327 2.607 2.607 0 0 0-.586-.076c-.545 0-1.022.184-1.433.55-.408.367-.615 1.018-.615 1.95 0 .363.049.73.146 1.1.099.372.3.697.606.978.303.28.738.42 1.297.42l-.001-.002Zm5.79-4.817v1.798h1.886c.334 0 .65.044.953.13.3.087.558.263.773.528.214.262.32.636.32 1.122 0 .282-.053.551-.162.81-.11.258-.315.477-.62.656-.3.18-.719.27-1.258.27h-2.716v-5.99h4.352v.675l-3.528.001Zm0 2.473v2.165h1.717c.918 0 1.374-.352 1.374-1.051 0-.742-.458-1.113-1.374-1.113h-1.717v-.001Zm6.756 1.669 3.267-4.819h.821v5.991h-.822v-4.853l-3.266 4.853h-.823v-5.99h.823v4.818Zm5.85 1.172v-.701c.07.017.145.025.221.025.816 0 1.225-.913 1.225-2.737v-2.577h3.843v5.99h-.823v-5.314h-2.197v2.074c0 1.197-.178 2.044-.527 2.535-.351.493-.805.74-1.366.74a2.706 2.706 0 0 1-.375-.035h-.001Zm8.504-5.99v2.438h1.76c.278 0 .566.045.859.133.298.087.557.266.783.534.224.268.337.643.337 1.13 0 .652-.199 1.107-.599 1.367-.399.258-.86.388-1.379.388h-2.583v-5.99h.823-.001Zm0 3.115v2.2h1.663c.158 0 .328-.028.513-.082a1.07 1.07 0 0 0 .499-.33c.149-.165.223-.397.223-.693 0-.73-.446-1.096-1.339-1.096h-1.558l-.001.001Zm6.49.06v2.816h-.823v-5.991h.823v2.498h3.082v-2.498h.823v5.99h-.823v-2.814h-3.082Zm6.981 1.266-.579 1.55h-.882l2.321-5.99h.875l2.319 5.99h-.886l-.577-1.55h-2.591Zm.227-.675h2.14l-1.069-2.953-1.07 2.953h-.001Zm9.347-.157h-1.391l-1.498 2.38h-1.017l1.667-2.464a2.253 2.253 0 0 1-.576-.114 1.692 1.692 0 0 1-.54-.302 1.42 1.42 0 0 1-.398-.531 1.884 1.884 0 0 1-.151-.793c0-.458.145-.872.434-1.24.287-.366.847-.548 1.678-.548h2.616v5.992h-.822l-.002-2.38Zm0-2.933h-1.723c-.511 0-.862.114-1.053.347-.192.231-.289.49-.289.773 0 .33.11.601.329.818.218.213.595.321 1.126.321h1.611l-.001-2.26Zm10.39 3.33h.823a2.963 2.963 0 0 1-.293.964c-.154.321-.421.6-.797.841-.376.24-.876.358-1.503.358-.633 0-1.169-.13-1.609-.396a2.411 2.411 0 0 1-.982-1.093c-.217-.463-.323-.991-.323-1.582 0-.265.019-.556.064-.87.04-.314.156-.662.339-1.04.182-.38.476-.704.879-.968.407-.267.941-.4 1.605-.4.574 0 1.046.092 1.411.273.364.182.637.425.811.73.176.304.282.646.318 1.028h-.821a1.544 1.544 0 0 0-.444-.94c-.26-.277-.686-.414-1.274-.414-.385 0-.712.075-.975.225a1.656 1.656 0 0 0-.622.597 2.491 2.491 0 0 0-.322.816 4.67 4.67 0 0 0-.092.93c0 .318.043.622.129.913.087.295.216.554.391.782.175.227.392.407.654.54.263.131.563.196.903.196.343 0 .643-.069.898-.205.258-.138.458-.32.596-.548.14-.23.221-.475.237-.737h-.001Zm3.624-1.447h3.212v.674h-3.212v2.08h3.643v.676h-4.464v-5.99h4.367v.675h-3.546v1.885Zm6.807-1.883h-1.996v-.676h4.807v.676h-1.99v5.313h-.821v-5.313Zm5.396-.676v2.438h1.761c.277 0 .565.045.858.133.297.087.557.266.784.534.224.268.336.643.336 1.13 0 .652-.199 1.107-.6 1.367a2.49 2.49 0 0 1-1.378.388h-2.583v-5.99h.822Zm0 3.115v2.2h1.663c.157 0 .329-.028.513-.082.185-.055.352-.164.5-.33.147-.165.222-.397.222-.693 0-.73-.446-1.096-1.339-1.096h-1.559v.001Z" fill="#fff"/><path d="M274.694 49.712h1.594c.432 0 .767-.086 1.005-.256.237-.17.356-.42.356-.749 0-.401-.158-.663-.473-.784.251-.185.376-.414.376-.687 0-.32-.117-.548-.35-.687-.233-.138-.59-.207-1.07-.207h-1.439v3.37h.001Zm1.542-1.394c.225 0 .389.03.493.088.103.058.155.152.155.282 0 .237-.222.356-.667.356h-.784v-.726h.804-.001Zm-.123-1.309c.233 0 .404.022.512.065.108.043.162.13.162.26 0 .229-.162.343-.486.343h-.869v-.668h.681Zm2.055 2.703h.738v-2.113l1.109 1.374 1.043-1.354v2.093h.739v-3.37h-.61l-1.179 1.53-1.18-1.53h-.661v3.37h.001Zm6.889-1.076a1.062 1.062 0 0 1-.901.447c-.29 0-.529-.069-.719-.207a.818.818 0 0 1-.331-.597h2.502a3.98 3.98 0 0 0 .039-.473c0-.462-.149-.835-.447-1.117-.298-.284-.676-.425-1.135-.425-.544 0-.968.164-1.273.493-.305.328-.457.75-.457 1.263 0 .532.165.956.496 1.274.33.318.768.476 1.312.476.571 0 1.026-.229 1.368-.687l-.454-.447Zm-1.024-1.704c.242 0 .437.06.583.181.147.121.236.297.266.525h-1.77a.869.869 0 0 1 .312-.518c.159-.126.362-.188.609-.188Zm4.66 1.672c-.211.32-.494.48-.848.48-.338 0-.608-.1-.814-.302a1.021 1.021 0 0 1-.308-.76c0-.316.098-.573.292-.772.194-.2.445-.298.752-.298.354 0 .642.147.862.44l.551-.362a1.274 1.274 0 0 0-.555-.554 1.827 1.827 0 0 0-.891-.211c-.527 0-.955.166-1.283.5-.329.332-.492.75-.492 1.257 0 .527.166.95.499 1.27.332.32.771.48 1.315.48.303 0 .586-.073.849-.217a1.41 1.41 0 0 0 .596-.613l-.524-.337h-.001Zm.635-1.575h1.219v2.683h.739V47.03h1.218v-.687h-3.176v.687Zm5.983 1.607a1.063 1.063 0 0 1-.902.447c-.289 0-.529-.069-.719-.207a.817.817 0 0 1-.33-.597h2.501a3.77 3.77 0 0 0 .039-.473c0-.462-.149-.835-.447-1.117-.298-.284-.676-.425-1.135-.425-.544 0-.969.164-1.273.493-.305.328-.457.75-.457 1.263 0 .532.165.956.496 1.274.33.318.768.476 1.312.476a1.62 1.62 0 0 0 1.368-.687l-.454-.447h.001Zm-1.025-1.704c.242 0 .437.06.584.181.146.121.235.297.265.525h-1.769a.867.867 0 0 1 .311-.518.958.958 0 0 1 .609-.188Zm6.255 1.672c-.212.32-.495.48-.849.48-.337 0-.608-.1-.813-.302a1.017 1.017 0 0 1-.308-.76c0-.316.097-.573.292-.772.194-.2.445-.298.751-.298.354 0 .642.147.862.44l.551-.362a1.272 1.272 0 0 0-.554-.554 1.827 1.827 0 0 0-.891-.211c-.528 0-.955.166-1.283.5-.329.332-.493.75-.493 1.257 0 .527.167.95.499 1.27.333.32.772.48 1.316.48.302 0 .585-.073.849-.217.264-.145.462-.35.596-.613l-.525-.337Zm2.437 1.108h1.594c.432 0 .766-.086 1.004-.256s.357-.42.357-.749c0-.401-.158-.663-.473-.784.251-.185.376-.414.376-.687 0-.32-.117-.548-.351-.687-.233-.138-.59-.207-1.069-.207h-1.439v3.37h.001Zm1.542-1.394c.225 0 .389.03.492.088.104.058.156.152.156.282 0 .237-.222.356-.667.356h-.785v-.726h.804Zm-.123-1.309c.233 0 .404.022.512.065.108.043.162.13.162.26 0 .229-.162.343-.486.343h-.869v-.668h.681Zm2.417.298c.311-.238.633-.356.966-.356.264 0 .451.062.564.188.113.125.167.316.162.57a2.221 2.221 0 0 0-.694-.09c-.475 0-.856.089-1.144.265-.287.178-.431.446-.431.804 0 .324.112.582.334.774.223.193.52.289.891.289.45 0 .797-.136 1.044-.408v.369h.739v-2.06c0-.441-.12-.783-.36-1.025-.239-.242-.58-.363-1.02-.363-.277 0-.542.044-.794.133-.253.089-.46.21-.619.367l.363.544h-.001Zm.81 1.802c-.19 0-.341-.038-.453-.114a.358.358 0 0 1-.169-.314c0-.298.296-.447.888-.447.229 0 .435.03.616.09v.325c-.203.307-.497.46-.881.46h-.001Zm2.288.602h.739V47.6l1.108 1.374 1.043-1.355v2.093h.739v-3.37h-.609l-1.18 1.53-1.18-1.53h-.661v3.37h.001Zm4.964 0 1.789-2.19v2.19h.739v-3.37h-.642l-1.788 2.197v-2.197h-.74v3.37h.642ZM296.422 18.85c.68-.184.987.007.917.558-3.014 3.669-7.479 8.59-13.396 14.76l-3.528 4.011c-2.56 2.835-.304 2.044 6.759-2.36.487.09.667.296.543.623-.131.32-.464.677-1.007 1.052-.536.38-1.968 1.17-4.277 2.361-2.315 1.197-3.695 1.846-4.145 1.951-.451.105-.7-.036-.741-.424-.041-.383.384-1.31 1.269-2.788 2.482-3.612 6.831-8.466 13.036-14.557l3.598-3.757-.462.208c-6.612 4.426-14.571 11.733-23.865 21.935-.8-.012-.856-1.043-.162-3.098.693-2.056 1.313-3.163 1.851-3.31.544-.153.883-.017 1.022.396.133.412.013.636-.358.658-.377.023-.638.694-.792 2.02 10.269-11.187 18.184-17.933 23.738-20.239Zm-.339 13.65c.969-.491 1.937-.688 2.905-.583.968.098 1.492.715 1.572 1.847.096 1.605-2.956 2.931-9.163 3.99-1.289.45-1.903.944-1.841 1.481.063.537.322.846.778.933.456.08.94.13 1.452.141.511.012 2.415-.415 5.712-1.28 3.291-.86 4.925-1.187 4.894-.98-.029.206-1.574.803-4.647 1.794-3.067.99-5.599 1.467-7.597 1.437-1.358-.297-1.936-1.02-1.735-2.169l.09-.798-1.174.07c-.113-.276.075-.545.558-.815.483-.27 3.213-1.96 8.197-5.068h-.001Zm-1.917 2.406c-3.548 1.776-3.345 2.16.598 1.16 3.169-.984 4.733-1.77 4.699-2.339-.035-.575-.748-.742-2.14-.508l-3.157 1.687Zm7.825-3.146 16.906-.68c.474.284.452.617-.067.99-.519.368-2.494.613-5.926.723l-2.934.104c-.745.093-2.704.012-5.882-.241.963.915 1.507 2.464 1.638 4.638 2.442-2.178 4.172-3.299 5.202-3.36.428.01.555.225.393.643l-7.096 5.855c-.474.017-.715-.192-.729-.63l.937-1.408c-.19-3.151-1.217-5.235-3.088-6.259-.053-.291.161-.418.645-.375h.001Z" fill="#fff"/><path fill-rule="evenodd" clip-rule="evenodd" d="M273.568 12.072c5.225 0 9.973 2.038 13.496 5.361l-3.341 6.273a12.924 12.924 0 0 0-10.155-4.914c-7.152 0-12.95 5.798-12.95 12.95 0 6.816 5.266 12.402 11.952 12.912l-3.342 6.277a19.552 19.552 0 0 1-6.555-2.811V44.4h-4.159a19.639 19.639 0 0 1-3.798-7.035c.154-.14.307-.28.458-.422 1.881-1.754 3.485-3.771 4.629-6.08 1.133-2.286 1.644-4.747 1.644-7.293 0-2.22-.485-4.24-1.506-6.01a19.6 19.6 0 0 1 13.627-5.487v-.001Z" fill="#E22427"/><path d="M236.907 24.796a10.867 10.867 0 0 1 3.567-4.515c1.598-1.19 3.605-1.783 6.019-1.783 2.267 0 4.041.548 5.323 1.644 1.282 1.096 1.923 2.591 1.923 4.486 0 .818-.121 1.617-.363 2.397-.241.78-.687 1.607-1.337 2.48a75.49 75.49 0 0 1-1.672 2.174c-.465.576-1.263 1.348-2.397 2.313a289.864 289.864 0 0 0-2.369 2.035c-.445.39-1.356 1.105-2.731 2.145-1.374 1.041-2.192 1.672-2.452 1.895l-8.806 6.41v4.961h30.264v-6.243h-19.731l4.459-2.563c3.419-2.379 6.094-4.469 8.026-6.271 1.932-1.802 3.418-3.753 4.459-5.852 1.04-2.1 1.56-4.412 1.56-6.94 0-3.455-1.235-6.242-3.706-8.36-2.471-2.118-5.917-3.176-10.339-3.176-3.827 0-7.134.901-9.921 2.703-2.787 1.802-4.663 4.375-5.629 7.72l5.852 2.34h.001Z" fill="#E22427"/></g><defs><linearGradient id="b" x1="173.796" y1="34.754" x2="173.796" y2="12.041" gradientUnits="userSpaceOnUse"><stop stop-color="#DEDEDE"/><stop offset=".369" stop-color="#fff"/><stop offset=".502" stop-color="#fff"/><stop offset=".651" stop-color="#fff"/><stop offset="1" stop-color="#F0F0F0"/></linearGradient><clipPath id="a"><path fill="#fff" d="M0 0h319.237v63.386H0z"/></clipPath></defs></svg>