<svg width="174" height="18" fill="none" xmlns="http://www.w3.org/2000/svg"><path d="M17.385 17.186H13.5v-13.5H0C0 2.017 1.196 0 3.711 0h27.223v3.686H17.385v13.5Zm47.822-13.55H43.164a4.956 4.956 0 1 0 0 9.913h22.043v3.637H42.915a8.593 8.593 0 1 1 0-17.186h22.292v3.636Z" fill="#D9D9D9"/><path d="M65.207 10.61H45.978c-1.843 0-2.34-1.17-2.34-1.818 0-.647.497-1.818 2.34-1.818h19.229v3.636Zm36.911 3.577a2.998 2.998 0 0 1-2.998 2.999c-.614 0-1.218-.16-1.751-.463L77.003 5.153a1.494 1.494 0 0 0-2.232 1.3v10.733h-3.936V3.008A3.008 3.008 0 0 1 73.844 0c.607 0 1.205.156 1.736.453l20.379 11.404a1.494 1.494 0 0 0 2.224-1.305V0h3.935v14.187Zm35.767-.587a3.587 3.587 0 0 1-3.587 3.586h-26.7v-3.587h30.287Zm0-6.775v3.586h-30.287V6.825h30.287ZM134.298.05a3.587 3.587 0 0 1 3.587 3.586h-30.287V.05h26.7Zm22.317 17.136h3.885v-13.5H174C174 2.018 172.804 0 170.289 0h-27.224v3.686h13.55v13.5Z" fill="#D9D9D9"/></svg>