<svg width="174" height="16" fill="none" xmlns="http://www.w3.org/2000/svg"><path fill-rule="evenodd" clip-rule="evenodd" d="M40.035 2.042C36.615 1.025 32.317.32 27.555.088A69.028 69.028 0 0 0 24.144 0h-.28c-1.158 0-2.293.032-3.411.088-4.754.232-9.06.937-12.48 1.954C3.076 3.508 0 5.63 0 7.992c0 2.002 2.213 3.836 5.856 5.237 1.478.569 3.204 1.065 5.105 1.482a52.84 52.84 0 0 0 4.994.825A69.15 69.15 0 0 0 24 16c2.82 0 5.529-.16 8.045-.464a49.914 49.914 0 0 0 4.994-.825c1.909-.409 3.627-.913 5.105-1.482C45.794 11.828 48 9.994 48 7.992c.016-2.362-3.068-4.484-7.965-5.95Zm-33.5 8.577a3.46 3.46 0 0 0 3.436-.36l1.318-.962 8.876-6.422.056-.04.064-.04c.367-.256 1.494-1.017 2.325-1.354l.008.008.05-.022c.053-.024.103-.047.158-.066h.008c.207-.072.431-.136.655-.168-.336 0-.672.008-1.007.016l-.224.008c-5.552.136-10.49.913-13.941 2.074-3.188 1.073-5.113 2.475-5.113 4.012 0 1.218 1.222 2.363 3.331 3.316Zm25.87 2.266c-2.573.336-5.409.52-8.397.52-2.988 0-5.832-.184-8.397-.52-2.349-.425-1.214-2.01-.599-2.699l.016-.016a2.82 2.82 0 0 1 .288-.288 69.816 69.816 0 0 1 6.719-5.99l.072-.056c.327-.24 1.158-.801 1.909-.793.75 0 1.582.553 1.91.793l.023.016a.167.167 0 0 0 .024.016l.04.032c.01.01.019.016.027.021l.013.01.016.009.008.008a67.269 67.269 0 0 1 5.417 4.725c.415.4.823.8 1.222 1.209l.008.008c.04.032.144.136.272.272.6.673 1.782 2.298-.591 2.723Zm5.64-2.627a3.421 3.421 0 0 0 3.436.36c2.109-.96 3.331-2.097 3.331-3.307 0-1.537-1.933-2.939-5.113-4.012-3.451-1.16-8.389-1.938-13.941-2.074l-.224-.008a42.183 42.183 0 0 0-1.007-.016 3.028 3.028 0 0 1 .713.192 1.8 1.8 0 0 1 .158.064l.008-.008c.831.337 1.957 1.098 2.325 1.354l.064.04.024.016.032.024 10.194 7.375Z" fill="#fff"/><path d="M66.851 3.53a3.797 3.797 0 0 0-3.59 5.062 3.824 3.824 0 0 0 3.59 2.531h13.68l-1.527 2.531H66.338a6.339 6.339 0 0 1-5.073-2.53 6.331 6.331 0 0 1 0-7.593A6.339 6.339 0 0 1 66.338 1h14.193l-1.527 2.53H66.85ZM146.788 1a3.798 3.798 0 0 1 3.808 3.796 3.782 3.782 0 0 1-2.998 3.705l2.986 5.153h-3.294l-2.93-5.062h-11.252v5.062h-3.044V6.062h16.724a1.27 1.27 0 0 0 1.266-1.266 1.27 1.27 0 0 0-1.266-1.265h-15.196L130.064 1h16.724Zm15.675 5.552 7.228-5.54H174l-9.895 7.592v5.061h-3.443V8.604l-9.895-7.593h4.469l7.227 5.54Zm-51.437-3.01a1.27 1.27 0 0 0-1.265 1.231v1.3h14.444l-1.528 2.53h-12.916v2.532h17.488l-1.528 2.53h-19.004V4.808a3.805 3.805 0 0 1 3.808-3.797h16.724l-1.528 2.531h-14.695Zm-10.191 2.52v-5.05h3.032v12.63h-3.044v-5.06H86.391v5.062h-3.044V1h3.044v5.062h14.444Z" fill="#fff"/></svg>