<svg width="317" height="31" fill="none" xmlns="http://www.w3.org/2000/svg"><path d="M0 29.2 13.08 1.6h2.6l12.96 27.6h-4.16l-2.4-5.32H6.48L4.04 29.2H0ZM14.4 6.8 8.08 20.48h12.48L14.4 6.8ZM49.993 15v.28c3.92.454 5.88 2.507 5.88 6.16 0 2.667-.8 4.627-2.4 5.88-1.573 1.253-3.987 1.88-7.24 1.88h-14.2V1.6h13.64c3.333 0 5.733.587 7.2 1.76 1.493 1.147 2.24 3.067 2.24 5.76 0 1.494-.467 2.76-1.4 3.8-.934 1.014-2.174 1.707-3.72 2.08Zm-3.84 1.96h-10.44v8.72h10.52c2 0 3.48-.32 4.44-.96.96-.666 1.44-1.787 1.44-3.36 0-1.68-.427-2.826-1.28-3.44-.853-.64-2.413-.96-4.68-.96Zm-.48-11.84h-9.96v8.48h10.04c1.893 0 3.293-.346 4.2-1.04.933-.693 1.4-1.84 1.4-3.44 0-1.573-.413-2.626-1.24-3.16-.8-.56-2.28-.84-4.44-.84Zm38.9-3.52v3.52h-11.24V29.2h-3.68V5.12h-11.24V1.6h26.16Zm27.887 25.04c-2.267 2.107-5.853 3.16-10.76 3.16s-8.507-1.053-10.8-3.16c-2.267-2.107-3.4-5.84-3.4-11.2 0-2.853.307-5.226.92-7.12.64-1.92 1.6-3.4 2.88-4.44a11.124 11.124 0 0 1 4.4-2.24c1.653-.426 3.653-.64 6-.64s4.347.214 6 .64a11.126 11.126 0 0 1 4.4 2.24c1.28 1.04 2.227 2.52 2.84 4.44.64 1.893.96 4.267.96 7.12 0 5.36-1.147 9.094-3.44 11.2Zm-15.24-.76c1.173.267 2.667.4 4.48.4 1.813 0 3.307-.133 4.48-.4a8.067 8.067 0 0 0 3.2-1.52c.96-.747 1.653-1.84 2.08-3.28.453-1.466.68-3.346.68-5.64 0-2.346-.227-4.266-.68-5.76-.427-1.493-1.133-2.6-2.12-3.32-.987-.746-2.053-1.24-3.2-1.48-1.12-.24-2.6-.36-4.44-.36-1.84 0-3.333.12-4.48.36-1.147.24-2.213.734-3.2 1.48-.96.72-1.667 1.827-2.12 3.32-.427 1.467-.64 3.387-.64 5.76 0 2.293.213 4.173.64 5.64.453 1.44 1.16 2.534 2.12 3.28a8.066 8.066 0 0 0 3.2 1.52Zm46.783-5.52h3.92c-.374 3.44-1.667 5.88-3.88 7.32-2.214 1.413-5.334 2.12-9.36 2.12-2.347 0-4.347-.227-6-.68-1.627-.453-3.054-1.213-4.28-2.28-1.2-1.093-2.094-2.573-2.68-4.44-.56-1.893-.84-4.213-.84-6.96 0-2.853.293-5.226.88-7.12.613-1.92 1.546-3.4 2.8-4.44a10.822 10.822 0 0 1 4.28-2.24c1.6-.426 3.546-.64 5.84-.64 4 0 7.08.707 9.24 2.12 2.186 1.387 3.466 3.787 3.84 7.2h-3.92c-.4-2.293-1.334-3.826-2.8-4.6-1.44-.8-3.56-1.2-6.36-1.2-1.787 0-3.227.12-4.32.36-1.094.24-2.12.734-3.08 1.48-.934.72-1.614 1.827-2.04 3.32-.4 1.467-.6 3.387-.6 5.76 0 2.293.213 4.173.64 5.64.426 1.44 1.093 2.534 2 3.28a7.758 7.758 0 0 0 3.08 1.52c1.146.267 2.586.4 4.32.4 2.826 0 4.986-.4 6.48-1.2 1.493-.8 2.44-2.373 2.84-4.72Zm29.985 5.32v3.52h-21.08V1.6h21.04v3.52h-17.36v8.4h16.96v3.52h-16.96v8.64h17.4ZM203.261 1.6v3.52h-11.24V29.2h-3.68V5.12h-11.24V1.6h26.16Zm24.477 12.52c1.52 1.254 2.28 3.374 2.28 6.36 0 2.987-.8 5.187-2.4 6.6-1.573 1.414-3.987 2.12-7.24 2.12h-13.4V1.6h3.68v10.6h9.64c3.44 0 5.92.64 7.44 1.92Zm-7.44 1.6h-9.64v9.96h9.72c2 0 3.48-.386 4.44-1.16.96-.8 1.44-2.146 1.44-4.04 0-1.867-.427-3.12-1.28-3.76-.853-.666-2.413-1-4.68-1Zm48.067-4.48c0 3.547-.8 6.16-2.4 7.84-1.573 1.68-3.987 2.52-7.24 2.52h-10.52v7.6h-3.68V1.6h14.12c3.44 0 5.92.747 7.44 2.24 1.52 1.467 2.28 3.934 2.28 7.4Zm-9.72-6.12h-10.44v12.96h10.52c2 0 3.48-.52 4.44-1.56.96-1.04 1.44-2.8 1.44-5.28 0-2.4-.427-4.013-1.28-4.84-.853-.853-2.413-1.28-4.68-1.28Zm13.936 9.64c0-4.08 1-7.106 3-9.08 2-1.973 5.04-2.96 9.12-2.96h3.24V0h3.68v2.72h3.24c4.08 0 7.12.987 9.12 2.96 2 1.974 3 5 3 9.08 0 8.507-3.88 12.76-11.64 12.76h-3.72v3.28h-3.68v-3.28h-3.72c-7.76 0-11.64-4.253-11.64-12.76Zm22.28-8.52h-3.24V24h3.72c2.534 0 4.48-.72 5.84-2.16 1.36-1.44 2.04-3.8 2.04-7.08 0-3.093-.653-5.28-1.96-6.56-1.306-1.306-3.44-1.96-6.4-1.96Zm-18.52 8.52c0 3.28.68 5.64 2.04 7.08 1.36 1.44 3.307 2.16 5.84 2.16h3.72V6.24h-3.24c-2.96 0-5.093.654-6.4 1.96-1.306 1.28-1.96 3.467-1.96 6.56Zm39.768 14.44h-4.56v-4.48h4.56v4.48Z" fill="#3E3A39"/></svg>