<svg width="192" height="39" viewBox="0 0 192 39" fill="none" xmlns="http://www.w3.org/2000/svg">
<g clip-path="url(#clip0_4007_412)">
<path d="M25.9404 39H0V33.0758H25.9404V39Z" fill="#F03024"/>
<path fill-rule="evenodd" clip-rule="evenodd" d="M76.4616 6.09021C80.0038 6.63211 82.4834 8.15349 83.8341 10.6893L83.9118 10.829C85.5229 13.7628 85.9031 16.6569 85.0247 19.4948L85.0238 19.4978L85.0228 19.5007C84.2589 21.7805 83.1439 23.5327 81.6658 24.7355C80.2445 25.892 78.5052 26.5261 76.4616 26.6481V33.6387H71.2288V26.6492C69.1768 26.5357 67.4309 25.9059 66.0051 24.7493C64.5221 23.5463 63.4049 21.7893 62.6411 19.5004L62.6392 19.4948C61.7469 16.6119 62.1535 13.6709 63.8298 10.6893C65.1809 8.15285 67.6696 6.63173 71.2288 6.09005V-0.869943H76.4616V6.09021ZM71.2288 11.3695C70.0177 11.7696 69.178 12.4574 68.6796 13.4229L68.6771 13.4279L68.6744 13.4326C67.7858 14.9934 67.5813 16.5055 68.033 17.986C68.6731 19.8834 69.742 21.0226 71.2288 21.4667V11.3695ZM76.4616 21.4667C77.9502 21.0224 79.028 19.8825 79.6845 17.9842C80.1355 16.5042 79.9309 14.9927 79.0426 13.4326L79.0408 13.4293L79.0389 13.4259C78.5243 12.4583 77.6747 11.7697 76.4616 11.3695V21.4667Z" fill="#F03024"/>
<path fill-rule="evenodd" clip-rule="evenodd" d="M92.169 6.36504C94.0044 5.72593 95.9338 5.71855 97.948 6.33277L98.044 6.36249L98.0446 6.36264L98.0451 6.3628C100.925 7.28173 102.63 8.95208 103.059 11.3941L103.063 11.4172V20.3044L104.576 21.4359V25.8414L104.382 25.8965C103.141 26.2484 102.007 26.2749 100.991 25.955C100.057 25.6613 99.244 25.0817 98.5482 24.2324C97.4496 25.2712 96.2784 25.9344 95.0339 26.2037C93.7119 26.4899 92.3302 26.3267 90.8966 25.7314C89.2813 25.3014 88.1088 24.4458 87.4154 23.1524C86.7254 21.8657 86.5284 20.1807 86.7869 18.1254C86.8353 17.1102 87.1462 16.2299 87.7269 15.4969C88.3079 14.7635 89.1461 14.1935 90.2225 13.777L90.2285 13.7746L90.2346 13.7726C92.2709 13.0957 94.7102 12.8814 97.5443 13.1178C97.5778 12.7016 97.5201 12.3517 97.384 12.0594C97.2298 11.7281 96.9643 11.448 96.5684 11.2238H93.5957C93.2967 11.248 93.0798 11.3465 92.922 11.5032C92.7599 11.6642 92.6365 11.9105 92.5722 12.2694L92.5327 12.49H87.124L87.1596 12.1902C87.4749 9.53653 89.1708 7.60005 92.1551 6.37031L92.162 6.36744L92.169 6.36504ZM93.0117 18.0668C92.3791 18.5698 92.1118 19.063 92.1118 19.5432C92.1118 20.0465 92.4042 20.6245 93.0881 21.2801C93.5827 21.6131 94.0915 21.774 94.6192 21.774C95.1557 21.774 95.73 21.6076 96.3459 21.2566L96.3558 21.2509L96.3662 21.2462C96.8669 21.0152 97.3414 20.5391 97.7771 19.7755V18.0668H93.0117Z" fill="#F03024"/>
<path fill-rule="evenodd" clip-rule="evenodd" d="M139.319 6.36504C141.154 5.72594 143.083 5.71856 145.098 6.33277L145.194 6.36249L145.195 6.3628C148.074 7.28173 149.779 8.95207 150.208 11.3941L150.213 11.4172V20.3044L151.726 21.4359V25.8414L151.531 25.8965C150.29 26.2484 149.156 26.2749 148.14 25.955C147.207 25.6613 146.394 25.0817 145.698 24.2324C144.599 25.2712 143.428 25.9344 142.183 26.2037C140.862 26.4898 139.48 26.3267 138.046 25.7315C136.431 25.3015 135.258 24.4459 134.565 23.1524C133.875 21.8657 133.678 20.1806 133.937 18.1252C133.985 17.1101 134.296 16.2299 134.876 15.4969C135.457 14.7635 136.296 14.1935 137.372 13.777L137.378 13.7746L137.384 13.7726C139.42 13.0957 141.86 12.8814 144.694 13.1178C144.727 12.7016 144.67 12.3517 144.534 12.0594C144.379 11.7281 144.114 11.448 143.718 11.2238H140.745C140.446 11.248 140.229 11.3465 140.072 11.5032C139.91 11.6643 139.786 11.9105 139.722 12.2694L139.682 12.49H134.274L134.309 12.1902C134.625 9.53654 136.32 7.60005 139.305 6.37031L139.312 6.36744L139.319 6.36504ZM140.161 18.0668C139.529 18.5698 139.261 19.063 139.261 19.5432C139.261 20.0465 139.554 20.6244 140.238 21.2801C140.732 21.613 141.241 21.774 141.769 21.774C142.305 21.774 142.88 21.6076 143.495 21.2566L143.505 21.2509L143.516 21.2462C144.016 21.0152 144.491 20.5391 144.927 19.7755V18.0668H140.161Z" fill="#F03024"/>
<path d="M42.5065 26.1491H36.9551V11.5471H33.0719L32.765 19.6438C32.7994 19.7572 32.8084 19.8899 32.8064 20.0237C32.804 20.1922 32.7833 20.397 32.7469 20.6346C32.6741 21.1105 32.5343 21.7426 32.3298 22.5275L32.3294 22.5288L32.3291 22.5302C31.8745 24.2025 30.6726 25.269 28.7907 25.7371L28.7741 25.7413L28.7571 25.7432L25.4332 26.1279V20.6911L25.7628 20.7712C26.3524 20.9145 26.8102 20.8784 27.1613 20.704C27.5001 20.5357 27.7788 20.219 27.9818 19.7144V6.48493H42.5065V26.1491Z" fill="#F03024"/>
<path fill-rule="evenodd" clip-rule="evenodd" d="M10.7018 -0.498205C12.3382 -1.19933 13.9207 -1.16755 15.4261 -0.391397L15.4978 -0.35386L15.578 -0.311214L15.6156 -0.228322C19.5153 8.35204 22.6266 17.0233 24.9492 25.7852L25.0385 26.1222H19.1898L17.4377 20.8956H8.01342L6.04887 25.7989H0.400155L0.518305 25.4456C3.00555 18.0081 5.08673 12.137 6.76155 7.83404C8.43118 3.5444 9.70876 0.780867 10.5925 -0.411753L10.6355 -0.469801L10.7018 -0.498205ZM9.66606 15.2677H15.6162L12.7119 6.28223L9.66606 15.2677Z" fill="#F03024"/>
<path fill-rule="evenodd" clip-rule="evenodd" d="M50.6568 12.3043H55.6072L55.6209 12.3056C57.0429 12.4537 58.2003 12.9122 59.0707 13.7C59.9415 14.4882 60.5018 15.585 60.7669 16.9668L60.7719 16.9933L60.7181 22.0145L60.7078 22.05C60.3673 23.2174 59.7779 24.1513 58.9336 24.8368C58.0908 25.521 57.0106 25.9442 55.7085 26.1198L55.6909 26.1222H45.3443V6.78128H50.6568V12.3043ZM50.6037 21.0332H54.2796C55.1992 20.299 55.592 19.6305 55.592 19.0314C55.592 18.436 55.2032 17.7975 54.2856 17.1238H50.6037V21.0332Z" fill="#F03024"/>
<path d="M159.103 13.5705H165.05V7.10318C165.05 6.95518 165.17 6.83515 165.317 6.83515H170.389V25.9336H165.236V18.6864H158.92V25.9336H153.767V6.83515H159.023L159.103 13.5705Z" fill="#F03024"/>
<path d="M178.619 13.4059L184.445 6.86209H191.163L183.248 15.7002L192 25.7989H185.006L178.513 18.8278V25.9336H173.36V6.83515H178.619V13.4059Z" fill="#F03024"/>
<path fill-rule="evenodd" clip-rule="evenodd" d="M130.859 4.7579H118.541V9.23167C121.265 9.2253 123.826 9.38803 126.221 9.72036L126.231 9.72167L126.24 9.72361C127.921 10.0793 129.256 10.652 130.225 11.4564C131.184 12.2527 131.773 13.2675 131.987 14.4908L131.997 14.5491L132 14.5697L132 14.5903L132.054 20.4096L132.054 20.4383L132.048 20.4663C131.746 21.9356 131.084 23.1341 130.059 24.0475C129.036 24.9586 127.667 25.572 125.97 25.9017L125.945 25.9067H112.511V-0.869943H130.859V4.7579ZM118.302 14.5633V20.5751H124.176C125.975 19.5322 126.754 18.5353 126.754 17.6102C126.754 17.1429 126.558 16.6493 126.123 16.125C125.696 15.6115 125.05 15.0814 124.172 14.5378L118.302 14.5633Z" fill="#F03024"/>
</g>
<defs>
<clipPath id="clip0_4007_412">
<rect width="192" height="39" fill="white"/>
</clipPath>
</defs>
</svg>
