<svg width="174" height="16" viewBox="0 0 174 16" fill="none" xmlns="http://www.w3.org/2000/svg">
<path fill-rule="evenodd" clip-rule="evenodd" d="M40.0346 2.04204C36.6151 1.02502 32.3169 0.32032 27.5552 0.0880881C26.4207 0.032032 25.2863 0 24.1438 0H23.8642C22.7057 0 21.5712 0.032032 20.4527 0.0880881C15.699 0.32032 11.3928 1.02502 7.97336 2.04204C3.0759 3.50751 0 5.62963 0 7.99199C0 9.99399 2.21305 11.8278 5.85618 13.2292C7.33421 13.7978 9.05991 14.2943 10.9614 14.7107C12.5113 15.047 14.1891 15.3273 15.9547 15.5355C18.4713 15.8318 21.1797 16 24 16C26.8202 16 29.5286 15.8398 32.0452 15.5355C33.723 15.3433 35.3928 15.0711 37.0386 14.7107C38.948 14.3023 40.6657 13.7978 42.1438 13.2292C45.7949 11.8278 47.9999 9.99399 47.9999 7.99199C48.0159 5.62963 44.932 3.50751 40.0346 2.04204ZM6.53528 10.6186C7.66178 11.1231 8.97203 10.979 9.97069 10.2583L11.2889 9.2973L20.1651 2.87488L20.221 2.83484L20.2849 2.7948C20.6524 2.53854 21.7789 1.77778 22.6098 1.44144L22.6178 1.44945C22.635 1.44181 22.6517 1.43416 22.6681 1.42663C22.7207 1.40258 22.7708 1.37965 22.8255 1.36136H22.8335C23.0413 1.28929 23.265 1.22523 23.4887 1.19319C23.1531 1.19319 22.8175 1.2012 22.482 1.20921L22.2583 1.21722C16.7057 1.35335 11.7683 2.13013 8.3169 3.29129C5.12916 4.36436 3.20373 5.76577 3.20373 7.3033C3.20373 8.52052 4.42609 9.66566 6.53528 10.6186ZM32.4048 12.8849C29.8322 13.2212 26.996 13.4054 24.008 13.4054C21.0199 13.4054 18.1757 13.2212 15.6112 12.8849C13.2623 12.4605 14.3968 10.8749 15.012 10.1862L15.0279 10.1702C15.1797 10.002 15.2916 9.8979 15.3156 9.88188C15.715 9.47347 16.1225 9.07307 16.5379 8.67267C17.8721 7.38338 19.2543 6.15015 20.6844 4.97297C21.1078 4.62062 21.5393 4.27628 21.9627 3.94795C21.9867 3.92793 22.0106 3.90991 22.0346 3.8919C22.0586 3.87388 22.0825 3.85586 22.1065 3.83584C22.4341 3.5956 23.2649 3.03503 24.0159 3.04304C24.7669 3.04304 25.5978 3.5956 25.9254 3.83584C25.9334 3.83984 25.9414 3.84585 25.9494 3.85186C25.9574 3.85786 25.9653 3.86386 25.9733 3.86787L26.0133 3.8999C26.0226 3.90928 26.032 3.91591 26.0397 3.92141C26.0452 3.9253 26.0499 3.92861 26.0532 3.93193L26.0692 3.93994L26.0772 3.94795C26.5086 4.28428 26.9321 4.62863 27.3555 4.97297C28.7856 6.15015 30.1677 7.38338 31.494 8.67267C31.9094 9.07307 32.3169 9.47347 32.7163 9.88188L32.7243 9.88989C32.7643 9.92192 32.8681 10.026 32.996 10.1622C33.5952 10.8348 34.7776 12.4605 32.4048 12.8849ZM38.0452 10.2583C39.0439 10.987 40.3541 11.1311 41.4806 10.6186C43.5898 9.65766 44.8122 8.52052 44.8122 7.31131C44.8122 5.77377 42.8788 4.37237 39.699 3.2993C36.2476 2.13814 31.3102 1.36136 25.7576 1.22523L25.5339 1.21722C25.1984 1.20921 24.8628 1.2012 24.5273 1.2012C24.751 1.23323 24.9747 1.28929 25.1824 1.36937C25.1864 1.36937 25.1884 1.37137 25.1904 1.37337C25.1924 1.37538 25.1944 1.37738 25.1984 1.37738C25.2119 1.38245 25.2257 1.38752 25.2398 1.39267C25.2923 1.4119 25.3477 1.43219 25.3981 1.45746L25.4061 1.44945C26.237 1.78579 27.3635 2.54655 27.731 2.8028L27.7949 2.84284L27.8189 2.85886L27.8508 2.88288L38.0452 10.2583Z" fill="white"/>
<path d="M66.8514 3.5308C64.7424 3.5308 63.0438 5.2294 63.0438 7.327C63.0438 7.7602 63.1236 8.1934 63.2604 8.5924C63.8076 10.1086 65.244 11.1232 66.8514 11.1232H80.5314L79.0038 13.654H66.3384C64.3434 13.654 62.4624 12.7192 61.2654 11.1232C60.4446 10.0288 60 8.695 60 7.327C60 5.959 60.4446 4.6252 61.2654 3.5308C62.4624 1.9348 64.3434 1 66.3384 1H80.5314L79.0038 3.5308H66.8514Z" fill="white"/>
<path d="M146.788 1C148.897 1 150.596 2.6986 150.596 4.7962C150.596 6.586 149.353 8.125 147.598 8.5012L150.584 13.654H147.29L144.36 8.59241H133.108V13.654H130.064V6.0616H146.788C147.484 6.0616 148.054 5.4916 148.054 4.7962C148.054 4.1008 147.484 3.5308 146.788 3.5308H131.592L130.064 1H146.788Z" fill="white"/>
<path d="M162.463 6.5518L169.691 1.0114H174L164.105 8.6038V13.6654H160.662V8.6038L150.767 1.0114H155.236L162.463 6.5518Z" fill="white"/>
<path d="M111.026 3.5422C110.342 3.5422 109.784 4.0894 109.761 4.7734V6.073H124.205L122.677 8.6038H109.761V11.1346H127.249L125.721 13.6654H106.717V4.8076C106.717 2.71 108.427 1.0114 110.525 1.0114H127.249L125.721 3.5422H111.026Z" fill="white"/>
<path d="M100.835 6.0616V1.0114H103.867V13.6426H100.823V8.581H86.391V13.6426H83.3472V1H86.391V6.0616H100.835Z" fill="white"/>
</svg>
