<svg width="317" height="31" viewBox="0 0 317 31" fill="none" xmlns="http://www.w3.org/2000/svg">
<path d="M0 29.2002L13.08 1.60019H15.68L28.64 29.2002H24.48L22.08 23.8802H6.48L4.04 29.2002H0ZM14.4 6.8002L8.08 20.4802H20.56L14.4 6.8002ZM49.9928 15.0002V15.2802C53.9128 15.7335 55.8728 17.7869 55.8728 21.4402C55.8728 24.1069 55.0728 26.0669 53.4728 27.3202C51.8995 28.5735 49.4861 29.2002 46.2328 29.2002H32.0328V1.60019H45.6728C49.0061 1.60019 51.4061 2.18686 52.8728 3.36019C54.3661 4.50686 55.1128 6.42686 55.1128 9.12019C55.1128 10.6135 54.6461 11.8802 53.7128 12.9202C52.7795 13.9335 51.5395 14.6269 49.9928 15.0002ZM46.1528 16.9602H35.7128V25.6802H46.2328C48.2328 25.6802 49.7128 25.3602 50.6728 24.7202C51.6328 24.0535 52.1128 22.9335 52.1128 21.3602C52.1128 19.6802 51.6861 18.5335 50.8328 17.9202C49.9795 17.2802 48.4195 16.9602 46.1528 16.9602ZM45.6728 5.12019H35.7128V13.6002H45.7528C47.6461 13.6002 49.0461 13.2535 49.9528 12.5602C50.8861 11.8669 51.3528 10.7202 51.3528 9.12019C51.3528 7.54686 50.9395 6.49353 50.1128 5.96019C49.3128 5.40019 47.8328 5.12019 45.6728 5.12019ZM84.5738 1.60019V5.12019H73.3338V29.2002H69.6538V5.12019H58.4138V1.60019H84.5738ZM112.46 26.6402C110.193 28.7469 106.607 29.8002 101.7 29.8002C96.7933 29.8002 93.1933 28.7469 90.9 26.6402C88.6333 24.5335 87.5 20.8002 87.5 15.4402C87.5 12.5869 87.8067 10.2135 88.42 8.32019C89.06 6.40019 90.02 4.92019 91.3 3.88019C92.58 2.81353 94.0467 2.06686 95.7 1.64019C97.3533 1.21353 99.3533 1.00019 101.7 1.00019C104.047 1.00019 106.047 1.21353 107.7 1.64019C109.353 2.06686 110.82 2.81353 112.1 3.88019C113.38 4.92019 114.327 6.40019 114.94 8.32019C115.58 10.2135 115.9 12.5869 115.9 15.4402C115.9 20.8002 114.753 24.5335 112.46 26.6402ZM97.22 25.8802C98.3933 26.1469 99.8867 26.2802 101.7 26.2802C103.513 26.2802 105.007 26.1469 106.18 25.8802C107.353 25.6135 108.42 25.1069 109.38 24.3602C110.34 23.6135 111.033 22.5202 111.46 21.0802C111.913 19.6135 112.14 17.7335 112.14 15.4402C112.14 13.0935 111.913 11.1735 111.46 9.68019C111.033 8.18686 110.327 7.08019 109.34 6.36019C108.353 5.61353 107.287 5.12019 106.14 4.88019C105.02 4.64019 103.54 4.52019 101.7 4.52019C99.86 4.52019 98.3667 4.64019 97.22 4.88019C96.0733 5.12019 95.0067 5.61353 94.02 6.36019C93.06 7.08019 92.3533 8.18686 91.9 9.68019C91.4733 11.1469 91.26 13.0669 91.26 15.4402C91.26 17.7335 91.4733 19.6135 91.9 21.0802C92.3533 22.5202 93.06 23.6135 94.02 24.3602C94.98 25.1069 96.0467 25.6135 97.22 25.8802ZM144.003 20.3602H147.923C147.549 23.8002 146.256 26.2402 144.043 27.6802C141.829 29.0935 138.709 29.8002 134.683 29.8002C132.336 29.8002 130.336 29.5735 128.683 29.1202C127.056 28.6669 125.629 27.9069 124.403 26.8402C123.203 25.7469 122.309 24.2669 121.723 22.4002C121.163 20.5069 120.883 18.1869 120.883 15.4402C120.883 12.5869 121.176 10.2135 121.763 8.32019C122.376 6.40019 123.309 4.92019 124.563 3.88019C125.816 2.81353 127.243 2.06686 128.843 1.64019C130.443 1.21353 132.389 1.00019 134.683 1.00019C138.683 1.00019 141.763 1.70686 143.923 3.12019C146.109 4.50686 147.389 6.90686 147.763 10.3202H143.843C143.443 8.02686 142.509 6.49353 141.043 5.72019C139.603 4.92019 137.483 4.52019 134.683 4.52019C132.896 4.52019 131.456 4.64019 130.363 4.88019C129.269 5.12019 128.243 5.61353 127.283 6.36019C126.349 7.08019 125.669 8.18686 125.243 9.68019C124.843 11.1469 124.643 13.0669 124.643 15.4402C124.643 17.7335 124.856 19.6135 125.283 21.0802C125.709 22.5202 126.376 23.6135 127.283 24.3602C128.216 25.1069 129.243 25.6135 130.363 25.8802C131.509 26.1469 132.949 26.2802 134.683 26.2802C137.509 26.2802 139.669 25.8802 141.163 25.0802C142.656 24.2802 143.603 22.7069 144.003 20.3602ZM173.988 25.6802V29.2002H152.908V1.60019H173.948V5.12019H156.588V13.5202H173.548V17.0402H156.588V25.6802H173.988ZM203.261 1.60019V5.12019H192.021V29.2002H188.341V5.12019H177.101V1.60019H203.261ZM227.738 14.1202C229.258 15.3735 230.018 17.4935 230.018 20.4802C230.018 23.4669 229.218 25.6669 227.618 27.0802C226.045 28.4935 223.631 29.2002 220.378 29.2002H206.978V1.60019H210.658V12.2002H220.298C223.738 12.2002 226.218 12.8402 227.738 14.1202ZM220.298 15.7202H210.658V25.6802H220.378C222.378 25.6802 223.858 25.2935 224.818 24.5202C225.778 23.7202 226.258 22.3735 226.258 20.4802C226.258 18.6135 225.831 17.3602 224.978 16.7202C224.125 16.0535 222.565 15.7202 220.298 15.7202ZM268.365 11.2402C268.365 14.7869 267.565 17.4002 265.965 19.0802C264.392 20.7602 261.978 21.6002 258.725 21.6002H248.205V29.2002H244.525V1.60019H258.645C262.085 1.60019 264.565 2.34686 266.085 3.8402C267.605 5.30686 268.365 7.77353 268.365 11.2402ZM258.645 5.12019H248.205V18.0802H258.725C260.725 18.0802 262.205 17.5602 263.165 16.5202C264.125 15.4802 264.605 13.7202 264.605 11.2402C264.605 8.84019 264.178 7.22686 263.325 6.40019C262.472 5.54686 260.912 5.12019 258.645 5.12019ZM272.581 14.7602C272.581 10.6802 273.581 7.65353 275.581 5.6802C277.581 3.70686 280.621 2.72019 284.701 2.72019H287.941V0.00019455H291.621V2.72019H294.861C298.941 2.72019 301.981 3.70686 303.981 5.6802C305.981 7.65353 306.981 10.6802 306.981 14.7602C306.981 23.2669 303.101 27.5202 295.341 27.5202H291.621V30.8002H287.941V27.5202H284.221C276.461 27.5202 272.581 23.2669 272.581 14.7602ZM294.861 6.2402H291.621V24.0002H295.341C297.875 24.0002 299.821 23.2802 301.181 21.8402C302.541 20.4002 303.221 18.0402 303.221 14.7602C303.221 11.6669 302.568 9.48019 301.261 8.20019C299.955 6.89353 297.821 6.2402 294.861 6.2402ZM276.341 14.7602C276.341 18.0402 277.021 20.4002 278.381 21.8402C279.741 23.2802 281.688 24.0002 284.221 24.0002H287.941V6.2402H284.701C281.741 6.2402 279.608 6.89353 278.301 8.20019C276.995 9.48019 276.341 11.6669 276.341 14.7602ZM316.109 29.2002H311.549V24.7202H316.109V29.2002Z" fill="#3E3A39"/>
</svg>
