<svg width="174" height="18" viewBox="0 0 174 18" fill="none" xmlns="http://www.w3.org/2000/svg">
<path d="M17.3851 17.1858H13.4996V3.68623H0C0 2.01746 1.19553 4.06468e-07 3.71114 0H30.9344V3.68623H17.3851V17.1858Z" fill="#313130"/>
<path d="M65.2065 3.63647H43.1638C40.4264 3.63647 38.2073 5.85557 38.2073 8.59296C38.2073 11.3303 40.4264 13.5494 43.1638 13.5494H65.2065V17.1859H42.9148C38.169 17.1859 34.3219 13.3387 34.3219 8.59296C34.3219 3.84723 38.169 5.66055e-05 42.9148 5.65574e-05H65.2065V3.63647Z" fill="#313130"/>
<path d="M65.2065 10.6104H45.9783C44.1352 10.6104 43.6371 9.43979 43.6371 8.79221C43.6371 8.14463 44.1352 6.974 45.9783 6.974H65.2065V10.6104Z" fill="#313130"/>
<path d="M102.118 14.187C102.118 15.8432 100.776 17.1859 99.1195 17.1859C98.5058 17.1859 97.9025 17.0265 97.3689 16.7233L77.0032 5.15385C76.0069 4.5879 74.7706 5.30747 74.7706 6.45325V17.1859H70.8353V3.0083C70.8353 1.3469 72.1821 5.65574e-05 73.8435 5.65574e-05C74.4514 5.76374e-05 75.0491 0.155928 75.5796 0.45276L95.9589 11.8565C96.9551 12.4139 98.1831 11.6939 98.1831 10.5524V5.65574e-05H102.118V14.187Z" fill="#313130"/>
<path d="M137.885 13.5992C137.885 15.5801 136.279 17.1858 134.298 17.1858H107.598V13.5992H137.885Z" fill="#313130"/>
<path d="M137.885 6.82455V10.4111H107.598V6.82455H137.885Z" fill="#313130"/>
<path d="M134.298 0.0498542C136.279 0.0498542 137.885 1.65563 137.885 3.63646H107.598V0.0498542H134.298Z" fill="#313130"/>
<path d="M156.615 17.1859H160.5V3.68629H174C174 2.01752 172.804 5.69639e-05 170.289 5.65574e-05H143.065V3.68629H156.615V17.1859Z" fill="#313130"/>
</svg>
