<svg width="174" height="17" viewBox="0 0 174 17" fill="none" xmlns="http://www.w3.org/2000/svg">
<path fill-rule="evenodd" clip-rule="evenodd" d="M40.0346 3.04204C36.6151 2.02502 32.3169 1.32032 27.5552 1.08809C26.4207 1.03203 25.2863 1 24.1438 1H23.8642C22.7057 1 21.5712 1.03203 20.4527 1.08809C15.699 1.32032 11.3928 2.02502 7.97336 3.04204C3.0759 4.50751 0 6.62963 0 8.99199C0 10.994 2.21305 12.8278 5.85618 14.2292C7.33421 14.7978 9.05991 15.2943 10.9614 15.7107C12.5113 16.047 14.1891 16.3273 15.9547 16.5355C18.4713 16.8318 21.1797 17 24 17C26.8202 17 29.5286 16.8398 32.0452 16.5355C33.723 16.3433 35.3928 16.0711 37.0386 15.7107C38.948 15.3023 40.6657 14.7978 42.1438 14.2292C45.7949 12.8278 47.9999 10.994 47.9999 8.99199C48.0159 6.62963 44.932 4.50751 40.0346 3.04204ZM6.53528 11.6186C7.66178 12.1231 8.97203 11.979 9.97069 11.2583L11.2889 10.2973L20.1651 3.87488L20.221 3.83484L20.2849 3.7948C20.6524 3.53854 21.7789 2.77778 22.6098 2.44144L22.6178 2.44945C22.635 2.44181 22.6517 2.43416 22.6681 2.42663C22.7207 2.40258 22.7708 2.37965 22.8255 2.36136H22.8335C23.0413 2.28929 23.265 2.22523 23.4887 2.19319C23.1531 2.19319 22.8175 2.2012 22.482 2.20921L22.2583 2.21722C16.7057 2.35335 11.7683 3.13013 8.3169 4.29129C5.12916 5.36436 3.20373 6.76577 3.20373 8.3033C3.20373 9.52052 4.42609 10.6657 6.53528 11.6186ZM32.4048 13.8849C29.8322 14.2212 26.996 14.4054 24.008 14.4054C21.0199 14.4054 18.1757 14.2212 15.6112 13.8849C13.2623 13.4605 14.3968 11.8749 15.012 11.1862L15.0279 11.1702C15.1797 11.002 15.2916 10.8979 15.3156 10.8819C15.715 10.4735 16.1225 10.0731 16.5379 9.67267C17.8721 8.38338 19.2543 7.15015 20.6844 5.97297C21.1078 5.62062 21.5393 5.27628 21.9627 4.94795C21.9867 4.92793 22.0106 4.90991 22.0346 4.8919C22.0586 4.87388 22.0825 4.85586 22.1065 4.83584C22.4341 4.5956 23.2649 4.03503 24.0159 4.04304C24.7669 4.04304 25.5978 4.5956 25.9254 4.83584C25.9334 4.83984 25.9414 4.84585 25.9494 4.85186C25.9574 4.85786 25.9653 4.86386 25.9733 4.86787L26.0133 4.8999C26.0226 4.90928 26.032 4.91591 26.0397 4.92141C26.0452 4.9253 26.0499 4.92861 26.0532 4.93193L26.0692 4.93994L26.0772 4.94795C26.5086 5.28428 26.9321 5.62863 27.3555 5.97297C28.7856 7.15015 30.1677 8.38338 31.494 9.67267C31.9094 10.0731 32.3169 10.4735 32.7163 10.8819L32.7243 10.8899C32.7643 10.9219 32.8681 11.026 32.996 11.1622C33.5952 11.8348 34.7776 13.4605 32.4048 13.8849ZM38.0452 11.2583C39.0439 11.987 40.3541 12.1311 41.4806 11.6186C43.5898 10.6577 44.8122 9.52052 44.8122 8.31131C44.8122 6.77377 42.8788 5.37237 39.699 4.2993C36.2476 3.13814 31.3102 2.36136 25.7576 2.22523L25.5339 2.21722C25.1984 2.20921 24.8628 2.2012 24.5273 2.2012C24.751 2.23323 24.9747 2.28929 25.1824 2.36937C25.1864 2.36937 25.1884 2.37137 25.1904 2.37337C25.1924 2.37538 25.1944 2.37738 25.1984 2.37738C25.2119 2.38245 25.2257 2.38752 25.2398 2.39267C25.2923 2.4119 25.3477 2.43219 25.3981 2.45746L25.4061 2.44945C26.237 2.78579 27.3635 3.54655 27.731 3.8028L27.7949 3.84284L27.8189 3.85886L27.8508 3.88288L38.0452 11.2583Z" fill="#313130"/>
<path d="M66.8514 4.5308C64.7424 4.5308 63.0438 6.2294 63.0438 8.327C63.0438 8.7602 63.1236 9.1934 63.2604 9.5924C63.8076 11.1086 65.244 12.1232 66.8514 12.1232H80.5314L79.0038 14.654H66.3384C64.3434 14.654 62.4624 13.7192 61.2654 12.1232C60.4446 11.0288 60 9.695 60 8.327C60 6.959 60.4446 5.6252 61.2654 4.5308C62.4624 2.9348 64.3434 2 66.3384 2H80.5314L79.0038 4.5308H66.8514Z" fill="#313130"/>
<path d="M146.788 2C148.897 2 150.596 3.6986 150.596 5.7962C150.596 7.586 149.353 9.125 147.598 9.5012L150.584 14.654H147.29L144.36 9.59241H133.108V14.654H130.064V7.0616H146.788C147.484 7.0616 148.054 6.4916 148.054 5.7962C148.054 5.1008 147.484 4.5308 146.788 4.5308H131.592L130.064 2H146.788Z" fill="#313130"/>
<path d="M162.463 7.5518L169.691 2.0114H174L164.105 9.6038V14.6654H160.662V9.6038L150.767 2.0114H155.236L162.463 7.5518Z" fill="#313130"/>
<path d="M111.026 4.5422C110.342 4.5422 109.784 5.0894 109.761 5.7734V7.073H124.205L122.677 9.6038H109.761V12.1346H127.249L125.721 14.6654H106.717V5.8076C106.717 3.71 108.427 2.0114 110.525 2.0114H127.249L125.721 4.5422H111.026Z" fill="#313130"/>
<path d="M100.835 7.0616V2.0114H103.867V14.6426H100.823V9.581H86.391V14.6426H83.3472V2H86.391V7.0616H100.835Z" fill="#313130"/>
</svg>
