<svg style="display: none;" aria-hidden="true" xmlns="http://www.w3.org/2000/svg" xmlns:xlink="http://www.w3.org/1999/xlink"><symbol fill="none" viewBox="0 0 24 24" id="icon-arrow-map" xmlns="http://www.w3.org/2000/svg"><g clip-path="url(#aa)"><path d="m4.387 10.06 7.165 2.387 2.388 7.166a.566.566 0 0 0 1.075 0l4.956-14.867a.567.567 0 0 0-.717-.717L4.387 8.985a.566.566 0 0 0 0 1.075Zm14.15-4.598-4.06 12.18-1.94-5.821a.568.568 0 0 0-.358-.358l-5.822-1.94 12.18-4.061Z" fill="currentColor"/></g><defs><clipPath id="aa"><path fill="#fff" d="M0 0h24v24H0z"/></clipPath></defs></symbol><symbol fill="none" viewBox="0 0 18 14" id="icon-arrow-next" xmlns="http://www.w3.org/2000/svg"><path d="m11.43.5 6.07 6.07-6.07 6.07M.5 6.57h16.83" stroke="currentColor" stroke-miterlimit="10" stroke-linecap="round" stroke-linejoin="round"/></symbol><symbol fill="none" viewBox="0 0 14 8" id="icon-bottom" xmlns="http://www.w3.org/2000/svg"><path d="M12.64.5 6.57 6.57.5.5" stroke="currentColor" stroke-miterlimit="10" stroke-linecap="round" stroke-linejoin="round"/></symbol><symbol fill="none" viewBox="0 0 14 14" id="icon-close" xmlns="http://www.w3.org/2000/svg"><path d="M13 1 1 13M1 1l12 12" stroke="currentColor" stroke-width="2" stroke-linecap="round" stroke-linejoin="round"/></symbol><symbol fill="none" viewBox="0 0 19 19" id="icon-tel" xmlns="http://www.w3.org/2000/svg"><path d="M5.566 6.432c.71 1.48 1.68 2.868 2.907 4.095a14.91 14.91 0 0 0 4.095 2.907c.127.061.19.091.271.115.287.084.638.024.88-.15.069-.049.127-.107.244-.224.357-.357.536-.536.715-.652.677-.44 1.55-.44 2.227 0 .18.116.358.295.715.652l.199.199c.542.543.814.814.961 1.105.293.58.293 1.264 0 1.844-.147.292-.419.563-.961 1.106l-.161.16c-.541.542-.812.812-1.18 1.018A3.448 3.448 0 0 1 14.97 19c-.421-.001-.71-.083-1.286-.247a19.442 19.442 0 0 1-8.46-4.976 19.443 19.443 0 0 1-4.976-8.46C.083 4.741 0 4.453 0 4.031a3.449 3.449 0 0 1 .393-1.51c.206-.367.477-.638 1.017-1.179l.161-.16C2.114.638 2.385.366 2.677.22a2.042 2.042 0 0 1 1.844 0c.291.147.562.419 1.105.961l.199.2c.357.356.536.535.652.714.44.677.44 1.55 0 2.227-.116.18-.295.358-.652.715a2.064 2.064 0 0 0-.224.243 1.068 1.068 0 0 0-.15.88c.023.081.054.145.115.272Z" fill="currentColor"/></symbol></svg>